<svg viewBox="0 0 606 229" xmlns="http://www.w3.org/2000/svg" fill-rule="evenodd" clip-rule="evenodd" stroke-linejoin="round" stroke-miterlimit="2"><path d="M367.328 73.822v152.622L222.45 152.619V0l144.878 73.822z" fill="#7bbfe9" fill-rule="nonzero"/><path d="M427.816 209.162c-.282 6.332-2.063 11.125-5.341 14.382-3.281 3.256-7.912 4.881-13.887 4.881-3.076 0-5.822-.509-8.241-1.525a15.652 15.652 0 0 1-6.103-4.541c-1.653-2.009-2.916-4.493-3.797-7.456-.875-2.962-1.313-6.378-1.313-10.244v-9.462c0-3.863.45-7.285 1.353-10.259.901-2.976 2.207-5.469 3.91-7.475a16.442 16.442 0 0 1 6.181-4.56c2.416-1.031 5.135-1.547 8.163-1.547 6.053 0 10.646 1.691 13.79 5.075 3.141 3.385 4.925 8.238 5.36 14.575h-11.254c-.049-1.984-.224-3.644-.515-4.981-.291-1.334-.744-2.397-1.353-3.188-.613-.787-1.406-1.343-2.385-1.678-.978-.328-2.193-.493-3.643-.493-1.5 0-2.782.253-3.835.762s-1.912 1.331-2.575 2.459c-.662 1.135-1.15 2.622-1.468 4.466-.319 1.844-.479 4.097-.479 6.772v9.534c0 2.594.129 4.81.385 6.641.253 1.831.7 3.322 1.334 4.478.634 1.159 1.475 2.003 2.519 2.541 1.044.531 2.362.8 3.966.8 1.375 0 2.549-.147 3.528-.441.981-.291 1.787-.806 2.421-1.544.638-.737 1.122-1.756 1.451-3.053.331-1.297.534-2.934.612-4.919h11.216zm43.028-37.04v38.147c0 3.228-.45 5.987-1.357 8.275-.903 2.287-2.159 4.165-3.774 5.628-1.616 1.465-3.541 2.537-5.779 3.222-2.237.69-4.678 1.031-7.325 1.031-2.693 0-5.168-.341-7.418-1.031-2.254-.685-4.185-1.757-5.797-3.222-1.619-1.463-2.875-3.341-3.778-5.628-.903-2.288-1.357-5.047-1.357-8.275v-38.147h11.291v38.147c0 1.831.153 3.318.459 4.459.303 1.15.757 2.044 1.353 2.694.6.647 1.338 1.09 2.213 1.331.881.247 1.891.366 3.034.366 1.144 0 2.157-.119 3.035-.366a4.51 4.51 0 0 0 2.193-1.331c.582-.65 1.029-1.544 1.335-2.694.303-1.141.456-2.628.456-4.459v-38.147h11.216zm31.968 40.969c0-.969-.09-1.832-.268-2.594-.178-.763-.553-1.481-1.125-2.156-.572-.672-1.388-1.329-2.441-1.963-1.056-.637-2.459-1.309-4.219-2.025a50.293 50.293 0 0 1-5.968-2.706c-1.894-1.016-3.56-2.219-4.994-3.603a16.09 16.09 0 0 1-3.434-4.81c-.857-1.818-1.279-3.934-1.279-6.35 0-2.315.432-4.431 1.297-6.353a13.906 13.906 0 0 1 3.644-4.9c1.563-1.35 3.419-2.397 5.569-3.147s4.519-1.128 7.112-1.128c2.672 0 5.078.428 7.231 1.281 2.147.85 3.979 2.035 5.494 3.544 1.51 1.516 2.675 3.322 3.488 5.419.815 2.1 1.222 4.406 1.222 6.925h-11.178c0-1.169-.122-2.244-.363-3.225-.241-.978-.622-1.819-1.144-2.516a5.386 5.386 0 0 0-2.003-1.643c-.812-.394-1.794-.591-2.934-.591-1.069 0-1.994.169-2.769.497-.775.331-1.416.781-1.925 1.356a5.558 5.558 0 0 0-1.144 2.041 8.168 8.168 0 0 0-.381 2.515c0 .916.194 1.741.591 2.482.393.737.953 1.425 1.678 2.059.725.634 1.603 1.231 2.631 1.794a40.3 40.3 0 0 0 3.416 1.637c2.593.941 4.856 1.985 6.79 3.128 1.931 1.147 3.544 2.444 4.844 3.891a14.528 14.528 0 0 1 2.9 4.903c.634 1.819.953 3.872.953 6.163 0 2.44-.4 4.612-1.203 6.521-.8 1.907-1.944 3.516-3.434 4.825-1.485 1.31-3.285 2.316-5.397 3.013-2.11.7-4.488 1.05-7.131 1.05-2.391 0-4.738-.363-7.038-1.084-2.306-.729-4.356-1.838-6.163-3.341-1.806-1.5-3.262-3.394-4.365-5.681-1.11-2.291-1.663-5.013-1.663-8.166h11.254c0 1.678.168 3.103.496 4.272.332 1.172.835 2.116 1.507 2.844.671.722 1.506 1.243 2.5 1.562.99.319 2.15.475 3.472.475 1.065 0 1.974-.156 2.728-.475.747-.319 1.356-.747 1.831-1.297.469-.547.803-1.2 1.009-1.962a9.63 9.63 0 0 0 .306-2.481zm56.382-3.929c-.281 6.332-2.063 11.125-5.341 14.382-3.281 3.256-7.912 4.881-13.887 4.881-3.075 0-5.822-.509-8.241-1.525a15.652 15.652 0 0 1-6.103-4.541c-1.653-2.009-2.916-4.493-3.797-7.456-.875-2.962-1.313-6.378-1.313-10.244v-9.462c0-3.863.45-7.285 1.354-10.259.9-2.976 2.206-5.469 3.909-7.475a16.442 16.442 0 0 1 6.181-4.56c2.416-1.031 5.135-1.547 8.163-1.547 6.053 0 10.647 1.691 13.79 5.075 3.141 3.385 4.925 8.238 5.36 14.575h-11.253c-.05-1.984-.225-3.644-.516-4.981-.291-1.334-.744-2.397-1.353-3.188-.613-.787-1.406-1.343-2.384-1.678-.979-.328-2.194-.493-3.644-.493-1.5 0-2.781.253-3.835.762-1.053.509-1.912 1.331-2.575 2.459-.662 1.135-1.15 2.622-1.468 4.466-.319 1.844-.478 4.097-.478 6.772v9.534c0 2.594.128 4.81.384 6.641.253 1.831.7 3.322 1.334 4.478.635 1.159 1.475 2.003 2.519 2.541 1.044.531 2.363.8 3.966.8 1.375 0 2.55-.147 3.528-.441.981-.291 1.787-.806 2.422-1.544.637-.737 1.122-1.756 1.45-3.053.331-1.297.534-2.934.612-4.919h11.216zm34.753-13.581c0-2.644-.194-4.903-.575-6.772-.381-1.868-.941-3.4-1.678-4.597-.738-1.193-1.653-2.071-2.747-2.631-1.094-.559-2.353-.84-3.778-.84-1.447 0-2.719.281-3.816.84-1.091.56-2.006 1.438-2.747 2.631-.734 1.197-1.294 2.729-1.678 4.597-.378 1.869-.569 4.128-.569 6.772v9.31c0 2.515.191 4.671.569 6.462.384 1.797.95 3.263 1.7 4.406.75 1.147 1.678 1.985 2.785 2.519 1.106.534 2.384.803 3.834.803 1.422 0 2.675-.269 3.759-.803 1.078-.534 1.988-1.372 2.725-2.519.738-1.143 1.291-2.609 1.66-4.406.368-1.791.556-3.947.556-6.462v-9.31zm11.25 9.31c0 3.887-.481 7.309-1.45 10.259-.966 2.95-2.322 5.406-4.06 7.362a16.65 16.65 0 0 1-6.296 4.425c-2.454.994-5.169 1.488-8.144 1.488-2.978 0-5.697-.494-8.166-1.488a16.927 16.927 0 0 1-6.35-4.425c-1.769-1.956-3.14-4.412-4.119-7.362-.981-2.95-1.468-6.372-1.468-10.259v-9.235c0-3.99.481-7.506 1.45-10.547.965-3.037 2.328-5.575 4.078-7.612a16.89 16.89 0 0 1 6.337-4.594c2.466-1.031 5.188-1.547 8.16-1.547 2.978 0 5.69.516 8.144 1.547a17.054 17.054 0 0 1 6.334 4.594c1.765 2.037 3.134 4.575 4.1 7.612.969 3.041 1.45 6.557 1.45 10.547v9.235z" fill="#fff" fill-rule="nonzero" stroke="#000" stroke-width="0.75px"/><path d="M200.744 55.159l-77.253-39.597 21.031-.687-.022-.013h.472c1.212 0 3.062-.024 3.062-.024.172-.007.354-.01.538-.01 2.922 0 7.553.775 12.825 2.725 2.225.697 4.375 1.569 6.487 2.522l-.022-.013.038.019c.4.178.797.363 1.191.55l3.178 1.628c.331.182.659.366.984.557l.741.378c11.95 7.122 21.44 18.381 26.75 31.965zm-14.813-22.584a55.028 55.028 0 0 0 0 0z" fill="#78c8d2" fill-rule="nonzero"/><path d="M288.688 81.781l-.35-.119-.582-.29-63.368-32.438 64.3 32.847z" fill="#0ab0cb" fill-rule="nonzero"/><path d="M117.925 228.131L0 167.694s101.541-7.569 158.95-24.022c8.272-2.2 15.866-6.172 22.428-11.544.288-.219.594-.437.875-.665l.406-.36c.303-.256.597-.519.894-.787 2.691-2.307 4.928-4.694 6.778-7.154 9.378-11.493 15.1-26.471 15.1-42.9 0-8.9-1.669-17.374-4.687-25.103l21.706 11.125v86.335l77.478 39.481c-.206.156-.419.312-.625.469-6.559 5.372-14.153 9.343-22.425 11.54-57.412 16.453-158.953 24.022-158.953 24.022zM222.45 47.947l-48.456-24.753a87.203 87.203 0 0 0-.71-.416l49.166 25.166v.003zm-49.166-25.169l-1.015-.519a54.931 54.931 0 0 0-3.178-1.628l-1.207-.619c1.85.832 3.65 1.754 5.4 2.766z" fill="#78c8d2" fill-rule="nonzero"/><path d="M299.928 192.1l-77.478-39.481V66.284l18.969 9.722 21.437-.672-.087-.028c1.203 0 3.19-.031 3.19-.031.022 0 .044-.003.072-.003 1.078 0 7.825.703 13.294 2.719a58.705 58.705 0 0 1 8.947 3.65l.066.021c20.7 10.491 35.021 32.96 35.021 59.035 0 16.437-5.721 31.416-15.1 42.903-1.85 2.459-4.087 4.853-6.778 7.159-.297.263-.594.525-.894.788l-.406.356-.253.197zm-75.54-143.166l-1.938-.987v-.003l1.938.99z" fill="#0ab0cb" fill-rule="nonzero"/><path d="M222.45 66.284l-21.706-11.125c-5.31-13.584-14.8-24.843-26.75-31.965l48.456 24.753v18.337zm-50.181-44.025l-3.178-1.628c1.078.51 2.137 1.05 3.178 1.628z" fill="#01b4c0" fill-rule="nonzero"/><path d="M288.338 81.662l-.066-.021a58.705 58.705 0 0 0-8.947-3.65c-5.469-2.016-12.216-2.719-13.294-2.719-.028 0-.05.003-.072.003 0 0-1.987.031-3.19.031l.087.028-21.437.672-18.969-9.722V47.947l1.938.987 63.368 32.438.582.29z" fill="#00a9bd" fill-rule="nonzero"/></svg>