<svg fill-rule="evenodd" stroke-linejoin="round" stroke-miterlimit="2" viewBox="0 0 1085 603" xmlns="http://www.w3.org/2000/svg"><path d="m54.35 0h213v106.5h-213z" fill="#00a855"/><path d="m834.253 0h213v106.5h-213z" fill="#446cb3"/><path d="m575.17 0h213v106.5h-213z" fill="#1d71b8"/><path d="m315.03 0h213v106.5h-213z" fill="#00a59c"/><g fill-rule="nonzero"><path d="m258.045 0v53.82c0 26.4-21.4 47.8-47.8 47.8h-95.6c-26.4 0-47.8-21.4-47.8-47.8v-53.82h-26.439v480.767c0 67.402 54.64 122.04 122.04 122.04s122.04-54.64 122.04-122.04v-480.767h-26.442z" fill="#00a855"/><path d="m517.128 0v53.82c0 26.4-21.4 47.8-47.8 47.8h-95.598c-26.4 0-47.8-21.4-47.8-47.8v-53.82h-26.44v480.767c0 67.402 54.64 122.04 122.04 122.04s122.04-54.64 122.04-122.04v-480.767z" fill="#00a59c"/><path d="m777.457 0v53.82c0 26.4-21.4 47.8-47.8 47.8h-95.6c-26.4 0-47.8-21.4-47.8-47.8v-53.82h-26.442v480.767c0 67.402 54.64 122.04 122.04 122.04s122.04-54.64 122.04-122.04v-480.767h-26.442z" fill="#1d71b8"/><path d="m1036.35 0v53.82c0 26.4-21.4 47.8-47.8 47.8h-95.6c-26.4 0-47.8-21.4-47.8-47.8v-53.82h-26.45v480.767c0 67.402 54.64 122.04 122.04 122.04s122.04-54.64 122.04-122.04v-480.767h-26.442z" fill="#446cb3"/><path d="m1081.55 50.02c-15.432 14.844-32.828 13.105-32.828 13.105s-17.397 1.74-32.828-13.105h-6.67c-15.43 14.844-32.827 13.105-32.827 13.105s-17.397 1.74-32.83-13.105h-6.67c-15.432 14.844-32.83 13.105-32.83 13.105s-17.396 1.74-32.827-13.105h-6.67c-15.43 14.844-32.827 13.105-32.827 13.105s-17.397 1.74-32.83-13.105h-6.67c-15.432 14.844-32.83 13.105-32.83 13.105s-17.393 1.74-32.813-13.105h-6.67c-15.43 14.844-32.827 13.105-32.827 13.105s-17.396 1.74-32.828-13.105h-6.67c-15.433 14.844-32.83 13.105-32.83 13.105s-17.397 1.74-32.828-13.105h-6.67c-15.432 14.844-32.828 13.105-32.828 13.105s-17.396 1.74-32.828-13.105h-6.67c-15.43 14.844-32.827 13.105-32.827 13.105s-17.396 1.74-32.828-13.105h-6.67c-15.43 14.844-32.828 13.105-32.828 13.105s-17.396 1.74-32.828-13.105h-6.67c-15.432 14.844-32.828 13.105-32.828 13.105s-17.396 1.74-32.828-13.105h-6.67c-15.43 14.844-32.828 13.105-32.828 13.105s-17.396 1.74-32.828-13.105h-6.67c-15.441 14.845-32.848 13.106-32.848 13.106s-17.396 1.74-32.828-13.105h-6.67c-15.432 14.844-32.828 13.105-32.828 13.105s-17.396 1.74-32.827-13.105h-6.67c-15.422 14.844-32.817 13.105-32.817 13.105s-17.398 1.739-32.83-13.106h-3.334v11.583c16.95 15.044 36.163 13.28 36.163 13.28s19.21 1.765 36.162-13.28c16.952 15.044 36.163 13.28 36.163 13.28s19.212 1.765 36.163-13.28c16.95 15.044 36.163 13.28 36.163 13.28s19.212 1.765 36.163-13.28c16.952 15.044 36.163 13.28 36.163 13.28s19.212 1.765 36.163-13.28c16.952 15.044 36.163 13.28 36.163 13.28s19.21 1.765 36.163-13.28c16.95 15.044 36.163 13.28 36.163 13.28s19.212 1.765 36.162-13.279c16.95 15.044 36.163 13.28 36.163 13.28s19.212 1.765 36.163-13.28c16.95 15.044 36.163 13.28 36.163 13.28s19.212 1.765 36.163-13.28c16.95 15.044 36.163 13.28 36.163 13.28s19.21 1.765 36.163-13.28c16.95 15.044 36.163 13.28 36.163 13.28s19.212 1.765 36.163-13.28c16.95 15.044 36.162 13.28 36.162 13.28s19.212 1.765 36.164-13.28c16.95 15.044 36.163 13.28 36.163 13.28s19.212 1.765 36.163-13.28c16.95 15.044 36.162 13.28 36.162 13.28s19.213 1.765 36.164-13.28c16.95 15.044 36.163 13.28 36.163 13.28s19.21 1.765 36.163-13.28c16.95 15.044 36.163 13.28 36.163 13.28s19.21 1.765 36.162-13.28v-11.584h-3.334z" fill="#fff"/></g><g font-family="LucidaGrande, Lucida Grande, sans-serif" font-size="290" font-weight="500" transform="matrix(.75 0 0 .75 -198.4 -445.5)"><text x="383.939" y="989.964">A</text><text x="708.449" y="993.444">Q</text><g><text x="1066.02" y="989.964">U</text><text x="1421.27" y="991.414">A</text><g fill="#fff"><text x="374.659" y="1280.83">C</text><text x="710.189" y="1281.12">O</text><text x="1091.83" y="1281.7">S</text><text x="1392.56" y="1286.05">M</text></g></g></g></svg>