<svg clip-rule="evenodd" fill-rule="evenodd" stroke-linejoin="round" stroke-miterlimit="2" viewBox="0 0 524 242" xmlns="http://www.w3.org/2000/svg" xmlns:xlink="http://www.w3.org/1999/xlink"><linearGradient id="a" gradientTransform="matrix(0 -237.663 237.663 0 262.664 240.038)" gradientUnits="userSpaceOnUse" x1="0" x2="1" y1="0" y2="0"><stop offset="0" stop-color="#0f3f93"/><stop offset=".22" stop-color="#1968a1"/><stop offset=".44" stop-color="#228aad"/><stop offset=".65" stop-color="#28a3b5"/><stop offset=".84" stop-color="#2cb2ba"/><stop offset="1" stop-color="#2db7bc"/></linearGradient><path d="m324.288 201.863c4.854-1.814 11.812-2.43 16.122-2.43v-4.783c0-6.666-3.478-7.826-9.638-7.826-4.203 0-9.958 1.959-12.135 3.514l-1.484-3.982c1.408-.944 8.478-4.13 15.176-4.13 8.405 0 14.095 2.319 14.095 12.682v29.812h-2.463c-2.104 0-3.187-.183-3.187-2.897l-.04-1.521c-2.242 2.026-6.918 4.418-12.786 4.418-7.315 0-12.568-4.312-12.568-11.486 0-5.433 3.153-9.238 8.908-11.371zm5.433 18.324c5.184 0 9.746-2.57 10.69-3.584v-13.295c-2.973 0-9.274.469-12.787 1.922-4.134 1.56-6.27 3.879-6.27 7.533 0 4.348 2.43 7.424 8.367 7.424zm29.847-37.31h5.142l.365 5.508c1.668-2.172 7.207-6.121 12.57-6.121 1.883 0 3.223.183 3.913.47v5.69c-.69-.365-1.996-.837-5.004-.837-4.778 0-8.87 2.716-10.94 4.784v31.768h-6.046zm31.912 4.527h-5.765v-3.292c2.685-.798 5.688-.907 6.34-2.647.472-1.23 1.05-5.613 1.817-8.037h3.614v9.414h12.826v4.562h-12.826v23.55c0 8.187 1.412 8.907 5.51 8.907 2.466 0 6.373-1.122 7.752-2.061l1.05 3.51c-2.1 1.705-7.137 3.408-10.902 3.408-5.069 0-9.416-1.521-9.416-10.361zm28.25-18.435h6.117l-.033 30.392c0 16.014 5.543 20.54 14.85 20.54 8.73 0 14.02-4.744 14.02-20.575v-30.322h6.09v31.77c0 15.903-6.738 23.946-20.285 23.946-14.562 0-20.796-8.406-20.757-23.906zm59.976 60.207v13.29h-6.008v-59.624h5.433l.032 4.819c1.962-1.958 5.832-5.397 12.896-5.397 8.473 0 16.301 5.904 16.301 19.885 0 13.188-8.22 22.57-20.684 22.57-3.406 0-6.193-.654-8.078-1.375zm8.517-8.875c7.932 0 13.836-6.307 13.981-17.314.11-10.764-4.347-15.977-11.772-15.977-4.784 0-8.729 2.463-10.726 4.2v27.023c1.343 1.159 4.061 2.068 8.517 2.068zm-463.573-49.738c14.838 0 20.795 12.892 20.625 27.817-.201 16.774-9.244 26.339-21.497 26.339-15.086 0-20.88-13.167-20.712-28.051.207-16.815 9.497-26.105 21.584-26.105zm13.585 27.495c.044-12.105-4.247-21.814-13.712-21.903-8.961-.147-14.326 7.437-14.376 20.601-.035 12.016 4.125 22.326 13.795 22.459 9.04.141 14.256-7.992 14.293-21.157zm35.32-15.794c4.855 0 8.59 1.16 10.034 2.138l-1.049 4.78c-2.033-1.483-5.435-2.244-9.312-2.244-6.772 0-13.01 5.178-13.295 15.976-.293 11.558 5.867 17.24 12.895 17.24 4.78 0 8.66-1.701 10.437-2.858l1.271 3.475c-2.61 2.394-7.394 3.95-12.61 3.95-11.373 0-17.858-8.84-17.858-20.61-.038-12.504 6.882-21.847 19.486-21.847zm35.6 0c8.734-.108 14.565 6.086 14.818 15.506 0 2.643 0 4.637-.326 6.339h-27.094c0 .468 0 .975.033 1.448.358 10.614 5.98 14.598 13.623 14.598 3.73 0 9.052-1.34 11.225-2.751l1.163 3.514c-2.72 2.245-8.845 3.804-13.948 3.804-11.59 0-18.002-7.826-18.002-21.047 0-12.427 6.628-21.265 18.507-21.411zm9.131 17.785c.438-7.568-1.993-13.475-9.49-13.475-6.122 0-10.905 3.949-11.988 13.475zm22.342 1.814c4.856-1.814 11.812-2.43 16.125-2.43v-4.783c0-6.666-3.478-7.826-9.64-7.826-4.2 0-9.96 1.959-12.139 3.514l-1.48-3.982c1.41-.944 8.48-4.13 15.178-4.13 8.402 0 14.095 2.319 14.095 12.682v29.812h-2.463c-2.104 0-3.189-.183-3.189-2.897l-.039-1.521c-2.242 2.026-6.915 4.418-12.785 4.418-7.318 0-12.569-4.312-12.569-11.486-.002-5.433 3.146-9.238 8.906-11.371zm5.44 18.324c5.181 0 9.741-2.57 10.687-3.584v-13.295c-2.978 0-9.274.469-12.787 1.922-4.129 1.56-6.269 3.879-6.269 7.533 0 4.348 2.427 7.424 8.368 7.424zm30.134-37.31h5.396l.04 5.29c2.93-2.208 9.161-5.831 15.177-5.94 8.982-.144 12.35 4.24 12.35 16.373v25.539h-6.052v-25.576c0-8.186-1.736-11.59-8.799-11.301-3.91.072-8.948 2.573-12.062 5.07v31.807h-6.05zm244.214-170.808c.051-.005.108-.015.16-.021-.104.054-.207.105-.312.163zm-324.19 33.175c-.059-.006-.107-.015-.16-.02.1.054.204.105.305.163zm331.71-33.756c.104-.057.207-.11.314-.17-.056.01-.11.019-.165.025zm40.685-10.923c-17.391.345-28.541 4.433-40.37 10.755 11.683-1.625 21.655-3.847 40.14-3.944 7.354-.036 14.037.087 19.93.335l-3.9 8.948c-5.73.247-12.276.444-19.725.569-22.53.364-49.693-4.85-76.979-6.49l-.574 1.594c-.08-.012-.14-.019-.14-.019l-6.518 18.794s16.788-12.102 34.843-14.832c20.613 3.198 41.146 7.73 59.366 7.517 36.842-.423 48.02-11.355 48.02-11.355s-18.166-12.578-54.093-11.871v-.001zm-324.701 63.716-6.518-18.792s-.058.007-.134.018l-.572-1.589c-27.29 1.63-54.45 6.85-76.985 6.484-6.474-.101-12.947-.284-19.416-.55l-3.91-8.978c5.82-.239 12.4-.36 19.632-.317 18.48.09 28.457 2.316 40.146 3.943-11.83-6.32-22.986-10.418-40.376-10.762-35.927-.703-54.093 11.875-54.093 11.875s11.183 10.928 48.02 11.355c18.22.211 38.75-4.319 59.36-7.517 18.057 2.73 34.845 14.83 34.845 14.83zm92.986 160.126h50.76c-.207-10.616-.295-20.38-.227-28.478 1.275-147.624 41.256-180.2 88.947-182.56l1.334-3.044c-51.66-1.187-101.81 14.525-119.81 109.513-22.483-65.614-66.278-77.37-111.226-76.34l1.332 3.047c47.187 2.335 86.807 34.256 88.89 177.862z" fill="url(#a)" fill-rule="nonzero"/></svg>