<svg viewBox="0 0 653 284" xmlns="http://www.w3.org/2000/svg" fill-rule="evenodd" clip-rule="evenodd" stroke-linejoin="round" stroke-miterlimit="2"><path d="M121.191 281.481c9.3 1.503 18.937 2.31 28.928 2.31 28.475 0 54.1-6.141 76.837-18.425 4.847-2.628 9.441-5.513 13.857-8.55L121.191 111.138v170.343M19.397 69.188C6.469 90.737 0 114.978 0 141.891c0 26.921 6.469 51.153 19.397 72.715 9.416 15.681 21.491 28.888 36.166 39.672V29.516C40.888 40.3 28.812 53.491 19.397 69.188" fill="#074ea2" fill-rule="nonzero"/><path d="M253.266 36.65a145.349 145.349 0 0 0-26.31-18.234C204.219 6.141 178.594 0 150.119 0c-12.319 0-24.085 1.216-35.36 3.513l138.507 169.153V36.65" fill="#00aeef" fill-rule="nonzero"/><path d="M363.759 92.481c3.804-2.162 6.8-5.147 8.997-8.95 2.191-3.8 3.291-8.05 3.291-12.747 0-4.7-1.1-8.95-3.291-12.75-2.197-3.803-5.193-6.784-8.997-8.946-3.8-2.166-8.081-3.247-12.84-3.247-4.76 0-9.072 1.081-12.935 3.247-3.865 2.162-6.893 5.143-9.087 8.946-2.197 3.8-3.294 8.05-3.294 12.75 0 4.697 1.097 8.947 3.294 12.747 2.194 3.803 5.222 6.788 9.087 8.95 3.863 2.166 8.175 3.247 12.935 3.247 4.759 0 9.04-1.081 12.84-3.247zm-30.553 7.188c-5.253-2.875-9.378-6.847-12.378-11.916-2.997-5.069-4.497-10.725-4.497-16.969 0-6.243 1.5-11.9 4.497-16.968 3-5.069 7.125-9.041 12.378-11.916 5.257-2.875 11.16-4.313 17.713-4.313 6.49 0 12.362 1.438 17.619 4.313 5.253 2.875 9.365 6.831 12.331 11.869 2.969 5.037 4.453 10.709 4.453 17.015 0 6.303-1.484 11.975-4.453 17.016-2.966 5.037-7.078 8.994-12.331 11.869-5.257 2.872-11.129 4.309-17.619 4.309-6.553 0-12.456-1.437-17.713-4.309m77.753 0c-5.225-2.875-9.321-6.832-12.287-11.869-2.966-5.041-4.453-10.712-4.453-17.016 0-6.306 1.487-11.978 4.453-17.015 2.966-5.038 7.078-8.994 12.331-11.869 5.256-2.875 11.128-4.312 17.619-4.312 5.069 0 9.706.849 13.909 2.549 4.203 1.701 7.791 4.219 10.76 7.557l-6.028 5.84c-4.885-5.128-10.975-7.693-18.269-7.693-4.822 0-9.178 1.081-13.072 3.247-3.897 2.162-6.944 5.143-9.134 8.946-2.197 3.8-3.294 8.05-3.294 12.75 0 4.697 1.097 8.947 3.294 12.747 2.19 3.803 5.237 6.788 9.134 8.95 3.894 2.166 8.25 3.247 13.072 3.247 7.234 0 13.322-2.597 18.269-7.79l6.028 5.84c-2.969 3.341-6.572 5.875-10.803 7.606-4.238 1.732-8.888 2.594-13.957 2.594-6.49 0-12.35-1.437-17.572-4.309m102.694-4.497v8.065h-47.106V38.328h45.809v8.069h-36.534v19.937h32.547v7.879h-32.547v20.959h37.831m53.135-15.578l-14.004-31.807-14.003 31.807h28.007zm3.243 7.415h-34.493l-7.141 16.228h-9.55l29.397-64.909h9.178l29.487 64.909h-9.737l-7.141-16.228m82.341-48.681v64.909h-7.603l-38.947-48.403v48.403h-9.272V38.328h7.603L643.1 86.731V38.328h9.272" fill="#074ea2" fill-rule="nonzero"/><path d="M379.106 120.256v64.906h-12.331l-32.362-39.406v39.406h-14.835v-64.906h12.425l32.266 39.406v-39.406h14.837m65.653 52.853v12.053H394.5v-64.906h49.056v12.053h-34.125v14.097h30.135v11.681h-30.135v15.022h35.328m25.407-40.612h-20.769v-12.241h56.559v12.241h-20.768v52.665h-15.022v-52.665m47.478 51.881c-3.96-1.022-7.113-2.303-9.46-3.847l4.822-10.387c2.225 1.422 4.913 2.581 8.066 3.478 3.153.897 6.244 1.344 9.275 1.344 6.119 0 9.178-1.516 9.178-4.541 0-1.422-.834-2.444-2.503-3.066-1.669-.615-4.234-1.14-7.697-1.575-4.078-.615-7.45-1.328-10.109-2.131-2.657-.803-4.957-2.225-6.907-4.266-1.946-2.04-2.918-4.946-2.918-8.715 0-3.153.909-5.95 2.734-8.394 1.822-2.441 4.478-4.341 7.975-5.7 3.491-1.359 7.616-2.041 12.381-2.041 3.522 0 7.032.385 10.522 1.157 3.491.775 6.385 1.84 8.669 3.2l-4.822 10.293c-4.387-2.471-9.178-3.709-14.369-3.709-3.097 0-5.412.431-6.956 1.297-1.547.869-2.319 1.981-2.319 3.341 0 1.546.835 2.625 2.503 3.243 1.669.619 4.325 1.207 7.975 1.763 4.079.681 7.416 1.406 10.013 2.178 2.597.775 4.853 2.181 6.769 4.219 1.918 2.04 2.875 4.887 2.875 8.534 0 3.091-.928 5.841-2.778 8.25-1.857 2.413-4.563 4.281-8.116 5.609-3.556 1.332-7.775 1.997-12.659 1.997-4.141 0-8.191-.512-12.144-1.531" fill="#24aae1" fill-rule="nonzero"/></svg>