<svg clip-rule="evenodd" fill-rule="evenodd" stroke-linejoin="round" stroke-miterlimit="2" viewBox="0 0 318 81" xmlns="http://www.w3.org/2000/svg"><path d="m18.075 24.3h-4.153v-8.481h-7.782v8.481h-4.167v-19.65h4.167v7.701h7.782v-7.701h4.153zm20.954-19.65v12.715c0 1.451-.325 2.724-.974 3.817-.65 1.093-1.589 1.93-2.816 2.513-1.228.583-2.68.874-4.355.874-2.527 0-4.49-.648-5.887-1.942-1.398-1.295-2.097-3.067-2.097-5.316v-12.661h4.153v12.03c0 1.513.305 2.625.914 3.332.61.708 1.618 1.062 3.024 1.062 1.362 0 2.35-.356 2.964-1.068.614-.713.92-1.83.92-3.354v-12.002zm13.132 19.65-4.732-15.416h-.12c.17 3.136.255 5.228.255 6.276v9.14h-3.724v-19.65h5.672l4.65 15.026h.08l4.936-15.026h5.671v19.65h-3.884v-9.3c0-.44.007-.946.02-1.52.014-.573.074-2.096.182-4.57h-.121l-5.068 15.39h-3.818zm17.634-19.65h6.115c2.787 0 4.81.396 6.069 1.19 1.259.792 1.888 2.053 1.888 3.783 0 1.174-.276 2.137-.827 2.89-.518.732-1.311 1.222-2.197 1.357v.134c1.245.278 2.144.798 2.695 1.56.55.761.826 1.774.826 3.037 0 1.792-.647 3.19-1.942 4.194-1.295 1.003-3.052 1.505-5.275 1.505h-7.352zm4.166 7.782h2.42c1.129 0 1.946-.175 2.453-.524.506-.35.759-.928.759-1.734 0-.753-.276-1.293-.827-1.62-.55-.327-1.422-.49-2.614-.49h-2.19v4.368zm0 3.306v5.121h2.715c1.147 0 1.994-.22 2.54-.658.547-.44.82-1.111.82-2.017 0-1.63-1.164-2.446-3.494-2.446zm32.164-1.29c0 3.253-.807 5.753-2.42 7.5-1.612 1.747-3.924 2.62-6.935 2.62-3.01 0-5.322-.873-6.935-2.62s-2.42-4.256-2.42-7.527c0-3.27.809-5.768 2.426-7.493 1.618-1.725 3.936-2.587 6.956-2.587s5.33.869 6.929 2.607c1.6 1.738 2.399 4.238 2.399 7.5zm-14.341 0c0 2.195.416 3.848 1.25 4.96.833 1.11 2.078 1.666 3.736 1.666 3.324 0 4.987-2.208 4.987-6.626 0-4.426-1.654-6.64-4.96-6.64-1.658 0-2.908.558-3.75 1.674-.842 1.115-1.263 2.77-1.263 4.966zm18.413 9.852v-19.65h4.167v16.21h7.97v3.44zm31.855-10.013c0 3.234-.921 5.712-2.762 7.432-1.842 1.72-4.5 2.581-7.977 2.581h-5.565v-19.65h6.17c3.207 0 5.698.847 7.472 2.54 1.775 1.694 2.662 4.06 2.662 7.097zm-4.328.107c0-4.22-1.864-6.33-5.592-6.33h-2.217v12.795h1.787c4.015 0 6.022-2.155 6.022-6.465zm15.181 9.906h-4.167v-16.183h-5.335v-3.467h14.838v3.467h-5.336z" fill="#6a29ff" fill-rule="nonzero"/><path d="m9.554 52.212h-4.167v-16.183h-5.336v-3.467h14.839v3.467h-5.336zm15.712 0h-8.938v-2.366l2.392-1.102v-12.714l-2.392-1.102v-2.365h8.938v2.365l-2.393 1.102v12.715l2.393 1.102v2.366zm7.527-10.403h1.37c1.282 0 2.24-.253 2.877-.76.636-.506.954-1.243.954-2.21 0-.977-.267-1.699-.8-2.165s-1.368-.698-2.506-.698h-1.895zm9.407-3.119c0 2.114-.66 3.732-1.983 4.852-1.321 1.12-3.2 1.68-5.638 1.68h-1.787v6.989h-4.167v-19.65h6.277c2.383 0 4.195.513 5.436 1.539s1.862 2.556 1.862 4.59zm7.876 3.118h1.371c1.282 0 2.24-.253 2.876-.76.637-.506.955-1.243.955-2.21 0-.977-.267-1.699-.8-2.165s-1.369-.698-2.507-.698h-1.895zm9.409-3.118c0 2.114-.661 3.732-1.983 4.852-1.321 1.12-3.2 1.68-5.638 1.68h-1.788v6.989h-4.166v-19.65h6.276c2.384 0 4.196.513 5.437 1.539s1.862 2.556 1.862 4.59zm11.061 13.52h-8.936v-2.365l2.393-1.102v-12.713l-2.393-1.102v-2.365h8.938v2.365l-2.392 1.102v12.715l2.392 1.102v2.366zm20.793 0h-5.296l-8.548-14.865h-.12c.17 2.626.255 4.499.255 5.619v9.247h-3.724v-19.65h5.256l8.535 14.717h.094c-.135-2.554-.202-4.36-.202-5.416v-9.301h3.75v19.65zm12.406-11.034h7.795v10.188c-1.163.388-2.357.678-3.568.867-1.132.167-2.275.25-3.42.249-2.967 0-5.231-.872-6.795-2.615-1.564-1.742-2.345-4.245-2.345-7.506 0-3.172.907-5.645 2.721-7.42 1.815-1.774 4.33-2.66 7.547-2.66 2.016 0 3.96.403 5.833 1.209l-1.384 3.333c-1.387-.705-2.92-1.074-4.476-1.075-1.8 0-3.243.605-4.328 1.815-1.084 1.21-1.626 2.835-1.626 4.878 0 2.133.437 3.762 1.31 4.886.874 1.125 2.144 1.687 3.811 1.687.87 0 1.752-.09 2.648-.269v-4.1h-3.723z" fill="#f00063" fill-rule="nonzero"/><path d="m233.736 6.994c-5.689.594-11.592-.984-17.29-.209-2.869.39-5.835 1.717-8.5 2.615-2.376.8-6.338 2.907-8.315 4.504-1.916 1.548-3.792 3.533-5.246 5.43-.893 1.166-.761 1.602-1.267 2.627-.713 1.443-1.745 2.347-2.568 3.765-2.48 4.274-4.362 8.997-4.74 13.797-.238 3.041.566 4.874 1.073 7.562.336 1.782-.182 3.363.578 5.149 1.701 3.993 4.927 7.321 8 10.506 3.312 3.433 7.786 6.207 12.684 6.532 2.762.184 5.168.227 7.867-.355 1.938-.417 3.424-1.555 5.178-2.458 5.318-2.74 10.399-5.259 16.004-7.754 6.202-2.76 9.48.667 14.274 3.95-2.694.867-4.143 1.268-6.513 2.682-2.237 1.336-4.488 1.705-6.767 3.017-2.635 1.517-4.974 3.434-7.618 4.926-1.332.751-2.708 1.428-4.05 2.146-.233.125-1.782 1.66-1.821.18-.522.232-.046.658-.36.895-.295.223-1.09 1.107-1.568 1.535-.74.663-1.329 1.718-2.553 2.059-1.295.36-2.622.29-4.02.384-.828.057-1.584.258-2.42.27-1.091.015-.63-.923-.992-1.106-1.227 1.624-3.894.49-5.816.113-1.267-.249-.376-.222-1.748-.48-1.239-.235-2.16-.487-3.315-.831-1.442-.43-2.816-1.385-4.253-1.706-1.43-.32-2.614.42-4.05-.089.207-.602.003-.955-.611-1.06-.854-.342-1.682-.745-2.477-1.206-.936-.614-1.75-1.52-2.878-2.139.802-1.284-3.589-3.12-4.52-4.691-.73-1.229-1.856-3.05-.938-3.573-3.16-1.013-3.154-2.494-6.672-1.314-2.865.962-3.992 3.075-6.537 4.465-2.772 1.514-4.725 2.863-7.283 4.175-1.793.92-6.69 2.452-8.124 1.818-.224.212-.168.453.167.723-3.728 1.167-6.693 2.09-10.594 2.66-1.909.28-6.619 1.655-7.967.081 1.52-1.198 3.608-1.344 5.317-2.14 1.885-.876 3.723-2.181 5.514-3.142 3.163-1.695 4.45-4.457 7.003-6.66 2.849-2.458 4.605-5.22 6.88-8.077 1.766-2.217 3.827-3.792 5.422-6.197.606-.912 1.289-1.887 1.942-2.702.2-.25 1.639-1.901 1.638-1.875.067-1.828-.815.645.015-1.993.214-.682.872-1.358 1.233-1.974.924-1.575 2.036-3.087 2.927-4.66 1.548-2.735 2.683-6.408 4.024-9.473 3.052-6.976 9.19-15.042 15.513-19.265 6.187-4.133 12.68-7.453 20.411-7.957 4.152-.27 8.716.085 12.61 1.345 1.853.598 3.644.841 5.154 2.158 1.185 1.034 1.642 1.996 2.963 3.017" fill="#6a29ff"/><path d="m308.976 66.164c-5.531.607-10.657 2.55-15.992 3.73-3.315.733-6.162 1.785-9.25 3.05-1.667.682-3.202.54-4.796 1.04-.814.256-1.083 1.012-1.847 1.26-.782.256-2.67.15-3.665.332-1.511.277-3.026-.048-4.45.095-2.491.25-5.12.452-7.628.23-2.365-.21-5.365-.906-7.736-1.63-.872-.265-6.853-1.49-6.97-1.736-.105-.225 7.287-3.04 8.184-3.285 2.664-.741 5.453-.92 8.19-.525 4.707.66 9.546 1.56 14.476.022 4.647-1.449 9.016-4.352 14.163-5.437 3.41-.718 6.26-.18 9.703.351.93.143 7.73 1.08 7.618 2.503" fill="#ddb700"/><path d="m231.881 39.243c.164 1.926-2.598 5.327-3.666 6.938-1.545 2.33-2.393 2.018-4.461 3.015-.755.364-.59.992-1.704 1.482-.678.298-1.693.302-2.426.512-.26.727-.745.98-1.453.761l-.863-.098c-.939.36-1.774.996-2.707 1.332-5.21 1.881-10.787-1.036-12.637-6.313-.523-1.494-.906-3.711-1.228-5.341-.49-2.48.331-3.907 1.593-6.114 2.458-4.297 4.076-7.485 8.082-10.52 1.99-1.507 4.115-3.67 6.533-4.457 3.76-1.224 1.01.766 1.608 2.576 1.051 3.179 3.843.212 5.634-.25 2.004-.515 2.846.641 4.074 2.149 3.696 4.542 3.152 8.825 3.621 14.328" fill="#f00063"/><g fill="#00e0d5"><path d="m247.473 22.258c2.875.21 5.846.427 8.787.45.204.002.409.003.614.003 2.886 0 5.798-.157 8.62-.31 1.373-.074 2.793-.15 4.185-.207 2.256-.093 4.511-.18 6.767-.266l2.266-.088.047.242.823-.123c.527-.08 1.062-.13 1.627-.185 1.294-.124 2.632-.251 3.873-.737.3-.118.607-.234.917-.352 2.224-.847 4.746-1.806 6.2-3.615 2.373-2.95 2.866-8.417-.473-12.104-3.71-4.098-5.703-4.487-10.655-2.075-.879.427-1.538 1.133-2.176 1.817-.345.37-.671.72-1.016 1.01-1.221 1.027-1.872 2.79-1.697 4.6.163 1.689 1.018 3.118 2.289 3.824.498.276 1.05.231 1.493.195.151-.013.295-.024.408-.021l.932.022-.044-.931c-.002-.119.002-.238.012-.356.03-.448.066-1.006-.287-1.468-.184-.24-.28-.447-.263-.567.01-.065.078-.25.514-.574.36-.269.71-.551 1.047-.825.492-.398.956-.774 1.448-1.103.862-.575 1.541-.815 2.018-.712.357.076.69.37 1.022.9.777 1.241 1.08 2.422.852 3.325-.14.551-.483.986-1.02 1.292-3.402 1.931-6.36 2.85-9.314 2.89-7.712.104-14.047.216-19.938.354-2.493.058-5.024.15-7.471.237-2.144.077-4.36.157-6.539.215-1.016.026-3.128.082-3.19 2.385-.065 2.389 2.217 2.52 3.075 2.57 1.414.081 2.854.186 4.247.288"/><path d="m315.96 14.263c-3.94-4.378-7.821-4.962-12.218-1.838-.333.238-.634.448-.94.63-1.9 1.132-3.01 2.62-3.21 4.305-.193 1.632.495 3.264 1.988 4.718.247.24 1.782 1.384 2.642.66.54-.456 1.413-1.745.974-2.657-.652-1.352-.209-1.768 1.289-2.88l.25-.188c1.181-.885 2.021-.892 3.101-.025 1.149.922 1.424 2.128.775 3.397-.932 1.822-2.59 3.006-4.928 3.52-1.89.414-3.91.542-5.865.665-.567.036-1.153.072-1.73.116-4.407.331-8.015.566-11.354.738-2.731.14-5.511.26-8.2.376-2.879.123-5.856.25-8.785.405-1.194.063-2.406.136-3.579.207-6.312.38-12.84.774-19.209-.267-1.053-.172-2.281.534-3.013 1.192-.745.67-1.135 1.407-1.098 2.076.126 2.263 2.073 2.365 3.119 2.42l.225.012c.957.057 1.935.133 2.88.206 1.987.154 4.035.313 6.075.313.244 0 .488-.003.73-.007 3.415-.067 6.875-.269 10.222-.464 1.839-.107 3.741-.218 5.61-.304 4.465-.208 9.006-.41 13.397-.603 4.469-.197 9.09-.402 13.636-.614 1.226-.065 2.45-.157 3.672-.276.422-.038.82-.075 1.181-.104 4.144.403 11.18-3.155 12.832-6.51 1.188-2.413 2.432-5.995-.47-9.22m-35.618 23.89c-2.936-2.37-5.694-3.217-8.945-2.75-4.398.631-8.904 1.103-13.26 1.558-1.531.16-3.106.326-4.668.496l-.073-.693-.838.062c-.728.053-1.455.11-2.183.169-1.7.134-3.457.274-5.18.353-.966.045-1.947.187-2.575.914-.434.501-.61 1.195-.524 2.062.246 2.483 2.403 2.39 3.44 2.347.632-.027 1.265-.077 1.878-.126.925-.073 1.792-.142 2.68-.14 2.276.006 4.593.044 6.834.08 4.54.074 9.235.15 13.854-.031 3.466-.136 5.721.968 7.546 3.69 1.225 1.83 1.094 2.964-.505 4.337-.874.75-3.589.681-4.47-.114l-.24-.216c-1.221-1.085-1.603-1.517-.8-2.602.544-.736.096-2.06.092-2.074-.157-.452-.413-.73-.764-.828-.29-.08-1.788-.445-2.74.25-1.2.877-2.755 2.335-2.404 4.859.288 2.073.683 4.912 3.846 6.119 1.723.657 3.425.986 5.13.986 1.68 0 3.364-.32 5.075-.957 2.004-.747 3.674-2.35 4.58-4.4.835-1.893.905-3.907.196-5.674-1.099-2.737-2.388-5.584-4.982-7.678"/></g></svg>