<svg clip-rule="evenodd" fill-rule="evenodd" stroke-linejoin="round" stroke-miterlimit="2" viewBox="0 0 1016 873" xmlns="http://www.w3.org/2000/svg" xmlns:xlink="http://www.w3.org/1999/xlink"><linearGradient id="a" gradientTransform="matrix(0 -591.638 591.655 0 539.456 665.127)" gradientUnits="userSpaceOnUse" x1="0" x2="1" y1="0" y2="0"><stop offset="0" stop-color="#ffb000"/><stop offset="1" stop-color="#ff8d10"/></linearGradient><g fill-rule="nonzero"><path d="m606.576 81.268c-.432 0-.648-.216-1.081-.216-21.184-4.754-43.234-7.563-65.931-7.563-163.424 0-295.935 132.459-295.935 295.819 0 146.721 107.003 268.16 247.081 291.497 15.996 2.593 32.209 4.322 48.638 4.322 163.207 0 295.502-132.243 295.934-295.387v-.432c.433-140.455-97.492-257.572-228.706-288.04z" fill="url(#a)"/><path d="m940.8 493.808c-35.625-42.525-96.75 61.425-96.75 61.425 77.025-74.925 132.3-18.9 96.75-61.425z" fill="#0076bf"/><path d="m655.209 744.357c28.265-17.675 53.322-38.407 75.546-61.377 27.743-28.637 50.862-60.78 68.611-95.309-14.393 17.078-30.8 32.739-48.773 46.983-9.621 7.607-19.539 14.916-30.129 21.553-157.879 98.814-365.948 51.01-464.763-106.868-1.193-1.865-2.311-3.729-3.43-5.594-70.326-117.16-61.228-260.571 12.678-366.47 25.207-36.095 57.946-67.865 97.621-92.773 80.767-50.563 174.733-62.645 260.422-41.316-121.635-61.227-271.459-59.288-395.331 18.271-134.239 84.048-201.805 234.171-187.114 381.684 5.967 59.811 25.357 119.174 59.438 173.615 118.055 188.53 366.619 245.656 555.224 127.601z" fill="#00a9de"/><path d="m230.7 774.308s-147.375-75.15-200.1-265.725c-15.3-55.275-22.65-120.225-16.05-195.975 0 0-50.475 185.325 36.6 327.45 34.35 56.25 90.375 105.675 179.55 134.25z" fill="#0076bf"/><path d="m760.95 668.108c-17.1 20.475-34.275 38.475-51.6 54.3-202.65 185.7-409.05 69.975-409.05 69.975 73.875 59.025 143.25 81.15 206.625 80.25 178.275-2.4 309.3-186.45 359.175-242.25 67.575-75.6 149.775 25.125 149.775 25.125s-37.35-247.95-254.925 12.6z" fill="#0076bf"/><g fill="#3a5675"><path d="m662.85 605.333c73.35-21.975 51.3-47.625 51.3-47.625-146.7 58.65-304.35 66-304.35 66 62.4 14.625 179.7 3.6 253.05-18.375z"/><path d="m610.575 446.783c118.8-47.85 78.15-167.775 78.15-167.775 8.325 54.375-24.3 107.625-128.625 153.225-104.25 45.675-113.85 176.925-113.85 176.925 26.85-67.125 45.525-114.45 164.325-162.375z"/><path d="m593.175 398.783c12.15 0 21.975-9.825 21.975-21.975s-9.825-21.975-21.975-21.975-21.975 9.825-21.975 21.975c0 12.075 9.825 21.975 21.975 21.975z"/><path d="m642.675 462.908c-11.025-11.025-69.675 25.65-69.675 25.65 58.65-10.95-7.35 99-7.35 99s87.975-113.625 77.025-124.65z"/></g></g></svg>